<?xml version="1.0" standalone="no"?>
<!DOCTYPE svg PUBLIC "-//W3C//DTD SVG 20010904//EN"
 "http://www.w3.org/TR/2001/REC-SVG-20010904/DTD/svg10.dtd">
<svg version="1.0" xmlns="http://www.w3.org/2000/svg"
 width="149.000000pt" height="69.000000pt" viewBox="0 0 149.000000 69.000000"
 preserveAspectRatio="xMidYMid meet">

<g transform="translate(0.000000,69.000000) scale(0.100000,-0.100000)"
fill="#000000" stroke="none">
<path d="M83 670 c-85 -51 -98 -179 -22 -211 38 -15 104 2 120 32 13 26 3 38
-14 16 -6 -9 -25 -21 -40 -26 -24 -10 -31 -7 -54 15 -20 20 -24 32 -20 57 14
84 57 129 102 109 13 -6 25 -21 27 -34 5 -34 23 -24 26 15 3 31 0 35 -29 41
-48 9 -61 8 -96 -14z"/>
<path d="M813 670 c-85 -51 -98 -179 -22 -211 38 -15 104 2 120 32 13 26 3 38
-14 16 -6 -9 -25 -21 -40 -26 -24 -10 -31 -7 -54 15 -22 22 -24 31 -19 67 4
23 14 52 22 64 33 52 90 53 101 2 8 -40 27 -31 31 13 3 33 1 36 -29 42 -48 9
-61 8 -96 -14z"/>
<path d="M260 666 c18 -23 -6 -166 -32 -188 -20 -17 -19 -18 33 -18 45 1 51 3
38 13 -13 10 -15 22 -10 52 6 40 7 40 55 43 l49 3 -6 -41 c-3 -23 -13 -48 -24
-55 -16 -13 -13 -14 30 -15 42 0 64 13 36 22 -17 6 16 167 38 184 16 12 11 13
-37 13 -49 0 -53 -1 -37 -13 15 -11 16 -20 9 -48 -8 -31 -11 -33 -53 -33 -44
0 -44 0 -41 34 1 19 10 40 20 47 15 12 11 13 -32 14 -41 0 -47 -2 -36 -14z"/>
<path d="M530 666 c16 -21 -8 -164 -32 -188 -17 -17 -15 -18 48 -18 112 0 165
43 168 133 1 31 -5 44 -27 63 -24 20 -39 24 -99 24 -60 0 -69 -2 -58 -14z
m124 -25 c24 -21 18 -101 -10 -132 -27 -31 -64 -43 -80 -27 -10 11 -10 27 2
88 7 41 16 81 19 88 6 16 41 7 69 -17z"/>
<path d="M333 221 c-65 -40 -85 -140 -38 -186 40 -40 155 -30 155 14 0 30 11
51 26 51 8 0 14 5 14 10 0 6 -22 10 -50 10 -48 0 -66 -12 -35 -24 18 -7 20
-40 3 -53 -27 -21 -47 -21 -72 -2 -30 24 -34 69 -12 124 27 64 107 78 122 20
7 -28 24 -34 24 -7 0 9 3 26 6 37 5 19 0 21 -53 23 -43 2 -66 -3 -90 -17z"/>
<path d="M531 208 c-15 -41 -9 -45 22 -14 19 19 37 26 63 26 34 0 36 -1 22
-17 -8 -10 -44 -53 -81 -96 -37 -43 -67 -82 -67 -87 0 -6 37 -10 85 -10 83 0
86 1 95 26 19 50 12 60 -19 26 -24 -26 -37 -32 -71 -32 -24 0 -39 4 -35 10 3
5 39 49 80 96 41 48 75 91 75 96 0 4 -36 8 -79 8 l-79 0 -11 -32z"/>
<path d="M730 234 c0 -4 6 -12 14 -18 23 -17 -6 -165 -36 -188 -23 -17 -22
-18 37 -17 55 0 58 1 41 14 -18 14 -18 19 -7 87 17 99 20 108 37 108 8 0 14 5
14 10 0 6 -22 10 -50 10 -27 0 -50 -3 -50 -6z"/>
<path d="M847 208 c-6 -44 -1 -46 24 -15 26 34 64 37 56 5 -3 -13 -11 -54 -18
-92 -9 -53 -16 -70 -30 -73 -38 -10 -18 -23 36 -23 30 0 55 5 55 10 0 6 -7 10
-15 10 -8 0 -15 8 -15 18 0 20 18 127 26 155 8 26 39 20 54 -10 l13 -28 8 25
c15 50 15 50 -90 50 l-99 0 -5 -32z"/>
<path d="M1080 228 c0 -7 -3 -24 -7 -38 l-6 -25 31 29 c51 48 63 32 46 -61
-19 -99 -20 -103 -39 -103 -8 0 -15 -4 -15 -10 0 -5 23 -10 50 -10 52 0 60 5
36 24 -13 10 -12 23 1 99 15 79 19 88 37 85 11 -2 26 -13 32 -25 13 -28 24
-19 24 19 l0 28 -95 0 c-69 0 -95 -3 -95 -12z"/>
<path d="M1324 207 c-33 -30 -38 -41 -42 -91 -4 -49 -2 -60 18 -81 32 -34 88
-34 129 1 17 14 29 30 26 34 -3 5 -16 -2 -30 -16 -29 -29 -66 -31 -90 -4 -25
28 -16 112 16 146 35 37 80 30 95 -15 12 -38 19 -33 29 19 l6 36 -60 2 c-56 2
-63 0 -97 -31z"/>
</g>
</svg>
